HIERARCHY
ROOT Hips
{
	OFFSET -3.958830 18.904000 13.208200
	CHANNELS 6 Xposition Yposition Zposition Zrotation Yrotation Xrotation 
	JOINT LHipJoint
	{
		OFFSET 0.000000 0.000000 0.000000
		CHANNELS 3 Zrotation Yrotation Xrotation
		JOINT LeftUpLeg
		{
			OFFSET 1.800000 -1.400000 0.085000
			CHANNELS 3 Zrotation Yrotation Xrotation
			JOINT LeftLeg
			{
				OFFSET 2.215000 -6.000000 0.000000
				CHANNELS 3 Zrotation Yrotation Xrotation
				JOINT LeftFoot
				{
					OFFSET 2.500000 -6.900000 0.000000
					CHANNELS 3 Zrotation Yrotation Xrotation
					JOINT LeftToeBase
					{
						OFFSET 0.200000 -0.500000 1.950000
						CHANNELS 3 Zrotation Yrotation Xrotation
						End Site
						{
							OFFSET 0.000000 0.000000 0.000000
						}
					}
				}
			}
		}
	}
	JOINT RHipJoint
	{
		OFFSET 0.000000 0.000000 0.000000
		CHANNELS 3 Zrotation Yrotation Xrotation
		JOINT RightUpLeg
		{
			OFFSET -1.800000 -1.400000 0.085000
			CHANNELS 3 Zrotation Yrotation Xrotation
			JOINT RightLeg
			{
				OFFSET -2.215000 -6.000000 0.000000
				CHANNELS 3 Zrotation Yrotation Xrotation
				JOINT RightFoot
				{
					OFFSET -2.500000 -6.900000 0.000000
					CHANNELS 3 Zrotation Yrotation Xrotation
					JOINT RightToeBase
					{
						OFFSET -0.200000 -0.500000 1.950000
						CHANNELS 3 Zrotation Yrotation Xrotation
						End Site
						{
							OFFSET 0.000000 0.000000 0.000000
						}
					}
				}
			}
		}
	}
	JOINT LowerBack
	{
		OFFSET 0.000000 0.000000 0.000000
		CHANNELS 3 Zrotation Yrotation Xrotation
		JOINT Spine
		{
			OFFSET -0.087000 1.940000 -0.288900
			CHANNELS 3 Zrotation Yrotation Xrotation
			JOINT Spine1
			{
				OFFSET 0.000000 1.950000 0.060000
				CHANNELS 3 Zrotation Yrotation Xrotation
				JOINT Neck
				{
					OFFSET 0.000000 0.000000 0.000000
					CHANNELS 3 Zrotation Yrotation Xrotation
					JOINT Neck1
					{
						OFFSET 0.000000 1.600000 0.340000
						CHANNELS 3 Zrotation Yrotation Xrotation
						JOINT Head
						{
							OFFSET 0.000000 1.667000 -0.240000
							CHANNELS 3 Zrotation Yrotation Xrotation
							End Site
							{
								OFFSET 0.000000 0.000000 0.000000
							}
						}
					}
				}
				JOINT LeftShoulder
				{
					OFFSET 0.000000 0.000000 0.000000
					CHANNELS 3 Zrotation Yrotation Xrotation
					JOINT LeftArm
					{
						OFFSET 2.700000 1.550000 -0.730000
						CHANNELS 3 Zrotation Yrotation Xrotation
						JOINT LeftForeArm
						{
							OFFSET 5.450000 0.000000 0.000000
							CHANNELS 3 Zrotation Yrotation Xrotation
							JOINT LeftHand
							{
								OFFSET 3.450000 0.000000 0.000000
								CHANNELS 3 Zrotation Yrotation Xrotation
								JOINT LeftHandIndex1
								{
									OFFSET 0.750000 0.000000 0.000000
									CHANNELS 3 Zrotation Yrotation Xrotation
									End Site
									{
										OFFSET 0.000000 0.000000 0.000000
									}
								}
							}
						}
					}
				}
				JOINT RightShoulder
				{
					OFFSET 0.000000 0.000000 0.000000
					CHANNELS 3 Zrotation Yrotation Xrotation
					JOINT RightArm
					{
						OFFSET -2.700000 1.550000 -0.730000
						CHANNELS 3 Zrotation Yrotation Xrotation
						JOINT RightForeArm
						{
							OFFSET -5.450000 0.000000 0.000000
							CHANNELS 3 Zrotation Yrotation Xrotation
							JOINT RightHand
							{
								OFFSET -3.450000 0.000000 0.000000
								CHANNELS 3 Zrotation Yrotation Xrotation
								JOINT RightHandIndex1
								{
									OFFSET -0.750000 0.000000 0.000000
									CHANNELS 3 Zrotation Yrotation Xrotation
									End Site
									{
										OFFSET 0.000000 0.000000 0.000000
									}
								}
							}
						}
					}
				}
			}
		}
	}
}
MOTION
Frames: 13
Frame Time: 0.016667
-0.932290 16.657770 -2.235440 -1.590093 -7.910488 -8.852918 -14.855676 12.020976 3.880881 28.676484 -1.540121 -16.893912 -16.100710 18.594277 39.324488 1.029366 9.724572 0.885229 0.200580 0.133670 0.310110 18.591254 -10.800097 2.913296 -23.697139 1.847233 -25.816654 11.509160 -17.719488 48.552046 -1.157119 -8.588440 1.116363 -0.136230 -0.247920 0.108250 -4.426141 0.419477 -8.608270 30.523416 -3.885414 24.129882 -1.941685 1.402827 -3.386851 0.721880 9.748385 -13.960733 26.011318 -23.450354 46.149524 5.670480 -13.401860 -2.482790 -8.207551 -2.223395 3.056476 -31.564034 4.685291 -8.613776 27.360626 -43.224270 -7.523178 -3.246288 3.126470 0.391290 -0.248940 0.352110 -0.003500 4.623239 -0.530397 9.076156 57.965702 -5.473955 -13.307638 43.589448 52.437148 13.711270 2.563756 -1.669383 0.114740 -0.083570 -0.143800 -0.019040 
-0.944560 16.665050 -2.228590 -1.519868 -7.940167 -8.678608 -14.867598 12.064130 3.857267 28.523966 -1.540661 -16.860216 -15.921947 18.424381 39.107103 0.986873 9.681282 0.910470 0.179500 0.104130 0.314880 18.576125 -10.776927 2.930287 -23.693802 1.858581 -25.954209 11.614323 -17.767398 48.479593 -1.146402 -8.576678 1.133103 -0.139340 -0.229860 0.089660 -4.384906 0.332281 -8.604531 30.433982 -3.891289 24.133754 -1.635920 1.480023 -3.830483 0.755172 9.895418 -13.804826 26.111557 -23.550953 45.257310 5.347810 -13.272510 -3.020460 -8.428764 -1.769316 2.902648 -31.562356 5.061661 -8.540533 26.545798 -43.415796 -7.207350 -3.267153 3.082184 0.405060 -0.239370 0.339050 -0.013640 4.734774 -1.021743 8.934042 57.752185 -5.746340 -13.256490 43.965140 52.648741 14.032932 2.552535 -1.639108 0.080750 -0.046340 -0.129290 -0.034740 
-0.969080 16.683290 -2.212790 -1.455770 -7.811160 -8.224836 -14.870541 12.139490 3.795583 28.134545 -1.552310 -16.869794 -15.371619 17.935094 38.586697 0.927016 9.512478 0.980849 0.136540 0.055740 0.299120 18.560518 -10.781812 2.964937 -23.443683 1.865705 -26.298210 11.631015 -17.737108 48.306472 -1.114199 -8.539386 1.159011 -0.152340 -0.203600 0.066350 -4.350538 0.266835 -8.585559 30.504088 -3.941235 23.743646 -1.427645 1.566116 -4.754684 0.693321 10.166925 -13.614735 26.345367 -23.793642 43.310163 4.846200 -13.498920 -2.862950 -8.962161 -1.178996 2.778660 -31.336651 6.057131 -8.453153 24.932768 -44.024041 -6.585159 -3.288359 3.056763 0.400570 -0.221380 0.312170 -0.023900 5.188702 -1.687381 8.780493 57.206809 -6.494900 -13.171356 44.606084 52.823544 14.495926 2.551869 -1.619411 0.044040 -0.017610 -0.111360 -0.042240 
-1.000650 16.710870 -2.194340 -1.464474 -7.796844 -7.712654 -14.854313 12.216545 3.714856 27.757723 -1.476332 -16.684550 -14.794586 17.294097 37.647769 0.841607 9.273071 1.069419 0.110240 0.021480 0.299740 18.557424 -10.837689 2.981248 -22.940212 1.949343 -26.423645 11.506595 -17.526548 47.936426 -1.086022 -8.437853 1.198940 -0.159320 -0.182770 0.058840 -4.359800 0.288653 -8.534320 30.987032 -4.022737 23.045900 -1.648414 1.588475 -5.409765 0.782614 10.490446 -13.366188 26.615118 -23.853334 41.016883 4.475460 -13.317700 -3.776420 -9.432836 -0.611373 2.740081 -31.479105 7.318217 -8.540857 24.079643 -44.835095 -6.310231 -3.309747 3.029460 0.412550 -0.208330 0.301490 -0.033200 5.276324 -2.454904 8.547606 57.202550 -6.695153 -12.900899 45.156775 52.231728 14.665274 2.544898 -1.592079 0.012120 0.011240 -0.095060 -0.055010 
-1.035250 16.750780 -2.162810 -1.445908 -7.625040 -7.040446 -14.819195 12.324642 3.608161 27.062010 -1.436127 -16.453515 -13.982609 16.434977 36.498354 0.757466 8.922495 1.194143 0.092510 -0.000490 0.296560 18.557511 -10.979466 2.960299 -22.207555 1.870699 -26.228152 11.110326 -16.948408 46.917180 -1.018185 -8.197673 1.283544 -0.164380 -0.168870 0.055180 -4.395713 0.391599 -8.440853 31.331368 -3.799764 21.736503 -1.638838 1.716911 -6.103574 0.744454 10.829968 -13.131450 26.941861 -24.049957 38.561014 4.094420 -13.415600 -3.975830 -9.372727 0.213490 2.558416 -31.997744 7.679403 -8.451053 21.595145 -45.487231 -5.434956 -3.324719 3.051137 0.401820 -0.192480 0.284930 -0.037050 5.045576 -3.497746 8.407754 57.536705 -7.207370 -12.668055 45.250644 51.662346 14.639613 2.539236 -1.591206 -0.001760 0.016840 -0.090200 -0.058780 
-1.068150 16.796820 -2.125680 -1.362067 -7.310065 -5.981824 -14.771913 12.365099 3.487757 26.262910 -1.428603 -16.388670 -13.349636 15.513202 34.924117 0.657854 8.526218 1.344192 0.060740 -0.034240 0.268060 18.581977 -11.102098 2.980717 -21.848784 1.692612 -26.281397 11.322221 -16.667745 45.508880 -0.947521 -7.998894 1.354071 -0.170650 -0.127120 0.058470 -4.488742 0.579111 -8.349172 31.635636 -3.485847 19.634305 -1.562462 1.643282 -6.424601 0.731451 11.177980 -12.759338 26.655734 -23.835423 35.532604 3.456070 -13.455900 -4.115880 -9.165007 0.936817 2.426817 -33.145241 7.884681 -8.442881 20.097328 -45.404266 -4.814486 -3.365026 3.059516 0.379280 -0.159150 0.252350 -0.034380 4.640389 -4.671883 8.128136 58.062924 -7.458305 -12.327800 44.988025 50.741450 14.350788 2.523574 -1.592066 -0.021740 0.029970 -0.070670 -0.052710 
-1.101440 16.853500 -2.081250 -1.086349 -7.067814 -4.649577 -14.726086 12.415498 3.351461 25.180875 -1.379254 -16.172499 -12.836870 14.479807 32.777261 0.538497 8.035567 1.530122 0.029670 -0.065780 0.233150 18.598731 -11.247689 3.008965 -21.441489 1.589765 -26.498849 11.329415 -16.106254 43.771321 -0.850743 -7.717621 1.451972 -0.170770 -0.079610 0.064440 -4.564987 0.814257 -8.236592 31.555454 -2.823960 17.473672 -1.414797 1.884152 -7.027608 0.721198 11.583870 -12.341295 26.490046 -23.588942 31.525300 2.952550 -13.372890 -4.491460 -8.698158 1.989060 2.037022 -34.514683 7.418580 -8.179708 18.447615 -44.738587 -3.996041 -3.419467 3.076479 0.353690 -0.118080 0.212140 -0.029920 3.843679 -6.063583 8.012439 58.937639 -8.044788 -12.008360 44.709421 49.938807 14.125228 2.493499 -1.604523 -0.045310 0.039400 -0.048830 -0.048180 
-1.136610 16.912300 -2.038440 -0.774610 -6.934734 -3.360581 -14.661131 12.463430 3.177709 23.882615 -1.323719 -15.886454 -11.979324 13.309224 30.627682 0.421813 7.478160 1.737123 0.013860 -0.084400 0.193140 18.633436 -11.436969 3.031174 -20.942691 1.521828 -26.627254 11.150547 -15.410260 42.004960 -0.747658 -7.424396 1.544725 -0.164620 -0.035770 0.085210 -4.693600 1.131953 -8.081011 31.434399 -2.105890 14.950633 -1.266549 1.935853 -7.257830 0.764103 11.707623 -11.718967 25.643020 -23.156903 28.176460 2.409920 -13.495360 -4.408070 -8.429286 3.051886 1.566153 -35.982709 6.612310 -7.841400 17.903772 -42.897457 -3.468098 -3.485426 3.113525 0.309010 -0.076550 0.164920 -0.021440 3.277562 -7.389464 7.711995 59.581419 -8.208717 -11.470656 43.947182 48.628599 13.545492 2.469222 -1.640915 -0.047790 0.024080 -0.028720 -0.034160 
-1.161160 16.979850 -2.000190 -0.875012 -6.918633 -2.178754 -14.586621 12.481621 3.026468 22.958784 -1.234212 -15.447987 -11.221744 12.181220 28.246038 0.292036 6.947750 1.920810 0.007300 -0.104210 0.159770 18.680674 -11.642070 3.016283 -20.019360 1.559212 -26.358456 10.976650 -14.527301 39.766893 -0.637869 -7.047871 1.648233 -0.156010 -0.003080 0.125420 -4.857428 1.508383 -7.892080 32.272202 -1.652093 12.375696 -2.038743 1.752645 -7.026467 1.044583 11.615224 -11.000987 24.517819 -22.467044 24.909588 1.896320 -13.242450 -4.766390 -8.584617 3.856036 1.230351 -36.825391 6.475683 -7.596768 18.478416 -41.563311 -3.396904 -3.558276 3.172580 0.273509 -0.038490 0.117190 -0.028310 2.705364 -8.428805 7.387175 60.690678 -7.720364 -10.871029 42.516172 46.897969 12.572176 2.435729 -1.681521 -0.042660 -0.013760 0.007340 -0.032030 
-1.188790 17.044070 -1.971140 -0.775040 -6.813531 -1.215990 -14.544115 12.513677 2.863488 21.923607 -1.173774 -14.808637 -10.390624 11.063051 25.866908 0.159118 6.422708 2.109527 0.037280 -0.072210 0.152620 18.706588 -11.818972 2.976454 -19.263702 1.532367 -26.032129 10.505461 -13.561160 37.713128 -0.546706 -6.679621 1.749834 -0.112320 0.026750 0.163280 -4.950892 1.790776 -7.679582 32.034470 -1.055775 10.030614 -1.702665 1.561247 -6.244704 1.369017 11.384796 -10.324434 23.329105 -22.134326 21.464615 1.238470 -12.822850 -6.039770 -9.035407 4.233907 0.901290 -37.687401 6.168037 -7.511792 18.596435 -40.012546 -3.356547 -3.621116 3.212600 0.240120 -0.003270 0.086110 -0.020890 2.598625 -9.050832 6.948701 60.981877 -7.326501 -10.480180 41.296392 45.794976 11.801059 2.396781 -1.728055 -0.036340 -0.028870 0.021800 -0.026550 
-1.214250 17.111980 -1.950710 -0.700544 -6.670547 -0.550626 -14.520895 12.563405 2.733973 21.024413 -1.138120 -14.090142 -9.551059 10.036583 23.658813 0.033775 5.941040 2.263416 0.117110 -0.006520 0.218650 18.712529 -11.964319 2.927034 -18.527187 1.522234 -25.498239 9.992113 -12.644489 35.830135 -0.493715 -6.326181 1.825334 -0.056930 -0.009550 0.214130 -4.989772 1.976679 -7.495202 31.752542 -0.572026 8.152853 -1.523052 1.418376 -5.357942 1.780613 10.984675 -10.026311 22.287157 -22.007445 18.744361 -0.112720 -11.913010 -7.761610 -9.345610 4.137320 0.785352 -38.883609 6.137846 -7.694645 18.968796 -38.594645 -3.499021 -3.643687 3.266428 0.237530 -0.001730 0.095270 -0.025550 2.145667 -8.937651 6.881946 61.948157 -6.946737 -10.469295 39.739845 44.686449 10.796873 2.362466 -1.786377 -0.010520 -0.078030 0.004530 -0.049310 
-1.232050 17.172960 -1.926980 -0.493871 -6.323582 0.471447 -14.502086 12.516923 2.609936 19.907687 -1.150267 -13.619856 -8.967152 9.057558 21.227393 -0.090514 5.487722 2.424420 0.185600 0.071500 0.232540 18.735321 -12.094413 2.875876 -18.067421 1.424520 -24.927917 9.875801 -11.736771 33.168979 -0.410616 -5.978679 1.906445 0.024010 0.015090 0.267060 -5.058073 2.281896 -7.262487 31.220753 0.005596 5.552661 -1.399285 1.056373 -4.183940 2.316381 10.182020 -9.422136 20.810675 -21.326856 15.259824 -1.641150 -10.735570 -8.213810 -10.021250 4.358697 0.538767 -39.617509 6.165421 -7.665747 19.536994 -37.478863 -3.682603 -3.713298 3.352355 0.178250 0.049140 0.059760 -0.007440 1.963056 -9.027500 6.537115 62.690599 -6.324915 -10.083780 37.923385 43.048397 9.606677 2.312734 -1.877823 0.008720 -0.113370 0.001990 -0.042940 
-1.246550 17.226600 -1.913970 -0.084421 -5.831761 1.404060 -14.501646 12.432892 2.496902 18.679706 -1.189382 -13.330338 -8.465180 8.192875 18.923087 -0.199984 5.128644 2.603353 0.207160 0.110630 0.207870 18.753558 -12.172028 2.844880 -18.052198 1.311488 -24.427574 10.148495 -11.075604 30.632058 -0.308906 -5.761481 1.984107 0.105540 0.121590 0.287420 -5.101122 2.555077 -7.042300 30.364810 0.437149 3.011057 -1.386792 0.558421 -2.779859 2.767423 8.961990 -9.028282 18.975342 -19.896382 12.068692 -3.482920 -9.159600 -6.834520 -11.101554 4.020498 0.589202 -40.009161 6.691666 -7.662079 22.066068 -36.474946 -4.369966 -3.842468 3.374836 0.071790 0.159020 -0.033060 0.026820 2.433630 -8.292239 6.259678 63.186458 -5.699583 -9.840566 36.238264 41.731991 8.442627 2.252263 -1.962324 -0.015780 -0.089120 0.012820 -0.022610 
